<svg width="34" height="33" viewBox="0 0 34 33" fill="none" xmlns="http://www.w3.org/2000/svg">
<path d="M12.1667 31.3524H8.77778C5.03451 31.3524 2 28.3178 2 24.5746V13.9125C2 11.5424 3.23798 9.34452 5.26484 8.11611L13.7371 2.98144C15.8963 1.67285 18.6037 1.67285 20.7629 2.98144L29.2351 8.11611C31.262 9.34452 32.5 11.5424 32.5 13.9125V24.5746C32.5 28.3178 29.4654 31.3524 25.7222 31.3524H22.3333M12.1667 31.3524V24.5746C12.1667 21.7671 14.4425 19.4913 17.25 19.4913C20.0575 19.4913 22.3333 21.7671 22.3333 24.5746V31.3524M12.1667 31.3524H22.3333" stroke="#023336" stroke-width="2.90476" stroke-linecap="round" stroke-linejoin="round"/>
</svg>
