<svg width="110" height="110" viewBox="0 0 110 110" fill="none" xmlns="http://www.w3.org/2000/svg">
<path d="M13.75 99.6875H24.0625V110H13.75C6.16602 110 0 103.834 0 96.25V13.75C0 6.16602 6.16602 0 13.75 0H49.3066C52.959 0 56.4609 1.43945 59.0391 4.01758L78.4824 23.4609C81.0605 26.0391 82.5 29.541 82.5 33.1934V65.3125H72.1875V34.375H55C51.1973 34.375 48.125 31.3027 48.125 27.5V10.3125H13.75C11.8594 10.3125 10.3125 11.8594 10.3125 13.75V96.25C10.3125 98.1406 11.8594 99.6875 13.75 99.6875ZM37.8125 75.625H44.6875C51.3262 75.625 56.7188 81.0176 56.7188 87.6562C56.7188 94.2949 51.3262 99.6875 44.6875 99.6875H41.25V106.562C41.25 108.453 39.7031 110 37.8125 110C35.9219 110 34.375 108.453 34.375 106.562V79.0625C34.375 77.1719 35.9219 75.625 37.8125 75.625ZM44.6875 92.8125C47.5449 92.8125 49.8438 90.5137 49.8438 87.6562C49.8438 84.7988 47.5449 82.5 44.6875 82.5H41.25V92.8125H44.6875ZM65.3125 75.625H72.1875C77.8809 75.625 82.5 80.2441 82.5 85.9375V99.6875C82.5 105.381 77.8809 110 72.1875 110H65.3125C63.4219 110 61.875 108.453 61.875 106.562V79.0625C61.875 77.1719 63.4219 75.625 65.3125 75.625ZM72.1875 103.125C74.0781 103.125 75.625 101.578 75.625 99.6875V85.9375C75.625 84.0469 74.0781 82.5 72.1875 82.5H68.75V103.125H72.1875ZM89.375 79.0625C89.375 77.1719 90.9219 75.625 92.8125 75.625H103.125C105.016 75.625 106.562 77.1719 106.562 79.0625C106.562 80.9531 105.016 82.5 103.125 82.5H96.25V89.375H103.125C105.016 89.375 106.562 90.9219 106.562 92.8125C106.562 94.7031 105.016 96.25 103.125 96.25H96.25V106.562C96.25 108.453 94.7031 110 92.8125 110C90.9219 110 89.375 108.453 89.375 106.562V79.0625Z" fill="#023336"/>
</svg>
