<svg width="31" height="31" viewBox="0 0 31 31" fill="none" xmlns="http://www.w3.org/2000/svg">
<path d="M15.2589 15.2658C19.4139 15.2658 22.8009 11.775 22.8009 7.5261C22.8009 3.31019 19.4489 0 15.2589 0C11.1211 0 7.71699 3.37624 7.71699 7.55913C7.73412 11.7912 11.1211 15.2658 15.2589 15.2658ZM15.2589 12.7791C12.7099 12.7791 10.5274 10.4744 10.5274 7.55842C10.5274 4.69371 12.6749 2.48668 15.2589 2.48668C17.8772 2.48668 19.9897 4.66069 19.9897 7.5261C19.9897 10.4407 17.8422 12.7791 15.2589 12.7791ZM4.295 30.5H26.2229C29.1205 30.5 30.5 29.6758 30.5 27.8651C30.5 23.5494 24.7383 17.3084 15.2589 17.3084C5.7788 17.3084 0 23.5501 0 27.8644C0 29.6758 1.37952 30.5 4.295 30.5ZM3.457 28.0119C3.00263 28.0119 2.81119 27.8967 2.81119 27.551C2.81119 24.85 7.24548 19.7937 15.2582 19.7937C23.2724 19.7937 27.6888 24.85 27.6888 27.551C27.6888 27.8967 27.5145 28.0119 27.0609 28.0119H3.457Z" fill="#BBBBBB"/>
</svg>
